# xmcd CD database file
#
# Track frame offsets:
#	150
#	16621
#	30364
#	45347
#	59884
#	80023
#	100814
#	121709
#	136117
#	156948
#	169456
#
# Disc length: 2605 seconds
#
# Revision: 0
# Processed by: cddbd v1.5.2PL0 Copyright (c) Steve Scherf et al.
# Submitted via: CDex 1.70beta2
#
DISCID=820a2b0b
DTITLE=David Cervera - TALAÜD
DYEAR=2000
DGENRE=New Age
TTITLE0=Cantic
TTITLE1=Voramar
TTITLE2=Infussió
TTITLE3=Jugant
TTITLE4=Als Cants De Bressol
TTITLE5=Dèria
TTITLE6=Acuvent
TTITLE7=Poble Ferrer
TTITLE8=Nunat
TTITLE9=Prego
TTITLE10=Atreviment
EXTD=YEAR: 2000
EXTT0=
EXTT1=
EXTT2=
EXTT3=
EXTT4=
EXTT5=
EXTT6=
EXTT7=
EXTT8=
EXTT9=
EXTT10=
PLAYORDER=
